# xmcd
#
# Track frame offsets: 
#        150
#        17487
#        36062
#        66280
#
# Disc length: 4061 seconds
#
# Revision: 0
# Processed by: cddbd v1.5.2PL0 Copyright (c) Steve Scherf et al.
# Submitted via: ExactAudioCopy v0.95a5
#
DISCID=290fdb04
DTITLE=Camera Obscura - Lloyd, I'm Ready To Be Heartbroken
DYEAR=2006
DGENRE=Elefant
TTITLE0=Lloyd, I'm Ready To Be Heartbroken
TTITLE1=Phil And Don
TTITLE2=Roman Holiday
TTITLE3=I Love My Jean video
EXTD=
EXTT0=
EXTT1=
EXTT2=
EXTT3=
PLAYORDER=
